<?xml version="1.0" standalone="no"?>
<!DOCTYPE svg PUBLIC "-//W3C//DTD SVG 20010904//EN"
 "http://www.w3.org/TR/2001/REC-SVG-20010904/DTD/svg10.dtd">
<svg version="1.0" xmlns="http://www.w3.org/2000/svg"
 width="1601.000000pt" height="1601.000000pt" viewBox="0 0 1601.000000 1601.000000"
 preserveAspectRatio="xMidYMid meet">
<metadata>
Created by potrace 1.14, written by Peter Selinger 2001-2017
</metadata>
<g transform="translate(0.000000,1601.000000) scale(0.100000,-0.100000)"
fill="#000000" stroke="none">
<path d="M10798 11897 c-515 -518 -1081 -1088 -1258 -1267 -177 -179 -782
-788 -1344 -1354 -561 -565 -1189 -1197 -1394 -1405 -205 -207 -540 -544 -745
-749 l-372 -374 -233 239 c-129 131 -408 416 -622 633 -213 217 -422 431 -465
474 l-78 80 -469 -473 c-258 -261 -467 -478 -466 -482 2 -5 224 -232 493 -505
270 -273 581 -589 693 -701 111 -113 202 -208 202 -212 0 -3 -164 -172 -365
-374 l-364 -368 -98 100 c-54 54 -204 207 -333 338 -129 132 -429 437 -666
679 -237 241 -480 489 -540 551 -120 122 -750 765 -1159 1181 l-261 264 -429
-432 c-237 -238 -449 -451 -473 -475 l-43 -42 157 -159 c86 -87 427 -433 758
-767 330 -335 704 -713 830 -840 485 -492 1518 -1537 1879 -1901 l377 -381
835 840 835 840 436 -440 c239 -242 612 -619 827 -837 216 -219 395 -398 400
-398 4 0 90 83 190 184 100 101 597 602 1103 1113 507 510 1069 1077 1249
1258 180 182 728 734 1218 1228 491 494 1056 1064 1257 1267 201 202 770 776
1265 1275 495 498 1059 1067 1253 1263 194 196 528 533 742 748 l390 391 -238
236 c-130 130 -342 340 -471 467 l-235 230 -365 -369 c-201 -203 -689 -695
-1084 -1093 -1004 -1010 -2450 -2467 -2967 -2988 -239 -241 -842 -849 -1340
-1350 -498 -501 -1144 -1152 -1435 -1446 l-531 -536 -359 367 c-198 201 -360
370 -360 375 0 8 348 360 2326 2354 340 341 765 770 945 953 181 182 745 751
1254 1263 509 513 1060 1069 1226 1236 l301 304 -469 462 c-258 255 -471 464
-472 465 -1 2 -423 -421 -938 -940z"/>
</g>
</svg>
